<svg data-v-423bf9ae="" xmlns="http://www.w3.org/2000/svg" viewBox="0 0 479.94645799818136 60" class="font"><!----><!----><!----><g data-v-423bf9ae="" id="6865dbde-0182-43de-809f-14eee34acc4d" fill="#1862da" transform="matrix(5.357142948374458,0,0,5.357142948374458,-3.000001979269797,-5.62499960192612)"><path d="M0.57 12.01L0.57 12.01L2.90 1.24L2.90 1.24Q2.94 1.05 3.14 1.05L3.14 1.05L5.08 1.05L5.08 1.05Q5.28 1.05 5.32 1.24L5.32 1.24L7.64 12.01L7.64 12.01Q7.65 12.04 7.65 12.08L7.65 12.08L7.65 12.08Q7.65 12.25 7.45 12.25L7.45 12.25L5.96 12.25L5.96 12.25Q5.78 12.25 5.74 12.05L5.74 12.05L5.35 10.01L2.86 10.01L2.47 12.05L2.47 12.05Q2.43 12.25 2.26 12.25L2.26 12.25L0.76 12.25L0.76 12.25Q0.56 12.25 0.56 12.10L0.56 12.10L0.56 12.10Q0.56 12.06 0.57 12.01ZM4.10 3.50L3.21 8.39L5.00 8.39L4.10 3.50ZM8.90 2.67L8.90 12.02L8.90 12.02Q8.90 12.25 9.13 12.25L9.13 12.25L13.58 12.25L13.58 12.25Q13.80 12.25 13.80 12.02L13.80 12.02L13.80 10.62L13.80 10.62Q13.80 10.40 13.58 10.40L13.58 10.40L10.81 10.40L10.81 2.67L10.81 2.67Q10.81 2.45 10.58 2.45L10.58 2.45L9.13 2.45L9.13 2.45Q9.02 2.45 8.96 2.51L8.96 2.51L8.96 2.51Q8.90 2.57 8.90 2.67L8.90 2.67ZM15.46 12.00L13.25 2.75L13.25 2.75Q13.24 2.71 13.24 2.66L13.24 2.66L13.24 2.66Q13.24 2.45 13.50 2.45L13.50 2.45L14.78 2.45L14.78 2.45Q15.03 2.45 15.09 2.70L15.09 2.70L16.47 9.03L17.87 2.70L17.87 2.70Q17.93 2.45 18.18 2.45L18.18 2.45L19.46 2.45L19.46 2.45Q19.71 2.45 19.71 2.66L19.71 2.66L19.71 2.66Q19.71 2.70 19.71 2.75L19.71 2.75L17.48 12.00L17.48 12.00Q17.42 12.25 17.17 12.25L17.17 12.25L15.77 12.25L15.77 12.25Q15.52 12.25 15.46 12.00L15.46 12.00ZM20.70 12.02L20.70 12.02L20.70 2.67L20.70 2.67Q20.70 2.57 20.76 2.51L20.76 2.51L20.76 2.51Q20.82 2.45 20.91 2.45L20.91 2.45L26.07 2.45L26.07 2.45Q26.29 2.45 26.29 2.67L26.29 2.67L26.29 4.07L26.29 4.07Q26.29 4.31 26.07 4.31L26.07 4.31L22.61 4.31L22.61 6.47L25.24 6.47L25.24 6.47Q25.46 6.47 25.46 6.71L25.46 6.71L25.46 8.09L25.46 8.09Q25.46 8.33 25.24 8.33L25.24 8.33L22.61 8.33L22.61 10.40L26.07 10.40L26.07 10.40Q26.20 10.40 26.24 10.45L26.24 10.45L26.24 10.45Q26.29 10.50 26.29 10.62L26.29 10.62L26.29 12.02L26.29 12.02Q26.29 12.25 26.07 12.25L26.07 12.25L20.91 12.25L20.91 12.25Q20.82 12.25 20.76 12.19L20.76 12.19L20.76 12.19Q20.70 12.13 20.70 12.02ZM27.26 10.23L27.26 10.23L27.26 9.32L27.26 9.32Q27.26 9.10 27.49 9.10L27.49 9.10L28.90 9.10L28.90 9.10Q29.13 9.10 29.13 9.32L29.13 9.32L29.13 9.91L29.13 9.91Q29.13 10.47 29.69 10.47L29.69 10.47L30.44 10.47L30.44 10.47Q31.00 10.47 31.00 9.91L31.00 9.91L31.00 8.50L27.64 7.40L27.64 7.40Q27.26 7.28 27.26 6.89L27.26 6.89L27.26 4.46L27.26 4.46Q27.26 3.48 27.78 2.96L27.78 2.96L27.78 2.96Q28.30 2.45 29.28 2.45L29.28 2.45L30.85 2.45L30.85 2.45Q31.84 2.45 32.35 2.96L32.35 2.96L32.35 2.96Q32.87 3.47 32.87 4.46L32.87 4.46L32.87 5.39L32.87 5.39Q32.87 5.61 32.64 5.61L32.64 5.61L31.23 5.61L31.23 5.61Q31.12 5.61 31.06 5.55L31.06 5.55L31.06 5.55Q31.00 5.49 31.00 5.39L31.00 5.39L31.00 4.80L31.00 4.80Q31.00 4.25 30.44 4.25L30.44 4.25L29.67 4.25L29.67 4.25Q29.41 4.25 29.26 4.39L29.26 4.39L29.26 4.39Q29.11 4.53 29.11 4.80L29.11 4.80L29.11 6.00L32.50 7.08L32.50 7.08Q32.87 7.21 32.87 7.60L32.87 7.60L32.87 10.23L32.87 10.23Q32.87 11.22 32.35 11.74L32.35 11.74L32.35 11.74Q31.84 12.25 30.85 12.25L30.85 12.25L29.28 12.25L29.28 12.25Q28.30 12.25 27.78 11.73L27.78 11.73L27.78 11.73Q27.26 11.22 27.26 10.23ZM34.14 12.01L34.14 12.01L36.46 1.24L36.46 1.24Q36.50 1.05 36.70 1.05L36.70 1.05L38.64 1.05L38.64 1.05Q38.84 1.05 38.88 1.24L38.88 1.24L41.21 12.01L41.21 12.01Q41.21 12.04 41.21 12.08L41.21 12.08L41.21 12.08Q41.21 12.25 41.02 12.25L41.02 12.25L39.53 12.25L39.53 12.25Q39.35 12.25 39.31 12.05L39.31 12.05L38.91 10.01L36.42 10.01L36.04 12.05L36.04 12.05Q36.00 12.25 35.82 12.25L35.82 12.25L34.32 12.25L34.32 12.25Q34.13 12.25 34.13 12.10L34.13 12.10L34.13 12.10Q34.13 12.06 34.14 12.01ZM37.67 3.50L36.77 8.39L38.56 8.39L37.67 3.50ZM41.34 2.67L41.34 4.07L41.34 4.07Q41.34 4.18 41.41 4.24L41.41 4.24L41.41 4.24Q41.47 4.30 41.57 4.30L41.57 4.30L43.20 4.30L43.20 12.02L43.20 12.02Q43.20 12.25 43.42 12.25L43.42 12.25L44.88 12.25L44.88 12.25Q45.10 12.25 45.10 12.02L45.10 12.02L45.10 4.30L46.72 4.30L46.72 4.30Q46.95 4.30 46.95 4.07L46.95 4.07L46.95 2.67L46.95 2.67Q46.95 2.45 46.72 2.45L46.72 2.45L41.57 2.45L41.57 2.45Q41.47 2.45 41.41 2.51L41.41 2.51L41.41 2.51Q41.34 2.57 41.34 2.67L41.34 2.67ZM48.06 12.02L48.06 12.02L48.06 2.67L48.06 2.67Q48.06 2.45 48.30 2.45L48.30 2.45L49.75 2.45L49.75 2.45Q49.85 2.45 49.91 2.51L49.91 2.51L49.91 2.51Q49.97 2.57 49.97 2.67L49.97 2.67L49.97 6.45L51.76 6.45L51.76 2.67L51.76 2.67Q51.76 2.57 51.82 2.51L51.82 2.51L51.82 2.51Q51.88 2.45 51.99 2.45L51.99 2.45L53.43 2.45L53.43 2.45Q53.67 2.45 53.67 2.67L53.67 2.67L53.67 12.02L53.67 12.02Q53.67 12.25 53.43 12.25L53.43 12.25L51.99 12.25L51.99 12.25Q51.88 12.25 51.82 12.19L51.82 12.19L51.82 12.19Q51.76 12.13 51.76 12.02L51.76 12.02L51.76 8.30L49.97 8.30L49.97 12.02L49.97 12.02Q49.97 12.13 49.91 12.19L49.91 12.19L49.91 12.19Q49.85 12.25 49.75 12.25L49.75 12.25L48.30 12.25L48.30 12.25Q48.06 12.25 48.06 12.02ZM55.06 2.67L55.06 12.02L55.06 12.02Q55.06 12.25 55.29 12.25L55.29 12.25L59.74 12.25L59.74 12.25Q59.96 12.25 59.96 12.02L59.96 12.02L59.96 10.62L59.96 10.62Q59.96 10.40 59.74 10.40L59.74 10.40L56.97 10.40L56.97 2.67L56.97 2.67Q56.97 2.45 56.75 2.45L56.75 2.45L55.29 2.45L55.29 2.45Q55.19 2.45 55.13 2.51L55.13 2.51L55.13 2.51Q55.06 2.57 55.06 2.67L55.06 2.67ZM61.22 12.02L61.22 12.02L61.22 2.67L61.22 2.67Q61.22 2.57 61.28 2.51L61.28 2.51L61.28 2.51Q61.34 2.45 61.43 2.45L61.43 2.45L66.59 2.45L66.59 2.45Q66.81 2.45 66.81 2.67L66.81 2.67L66.81 4.07L66.81 4.07Q66.81 4.31 66.59 4.31L66.59 4.31L63.13 4.31L63.13 6.47L65.76 6.47L65.76 6.47Q65.99 6.47 65.99 6.71L65.99 6.71L65.99 8.09L65.99 8.09Q65.99 8.33 65.76 8.33L65.76 8.33L63.13 8.33L63.13 10.40L66.59 10.40L66.59 10.40Q66.72 10.40 66.77 10.45L66.77 10.45L66.77 10.45Q66.81 10.50 66.81 10.62L66.81 10.62L66.81 12.02L66.81 12.02Q66.81 12.25 66.59 12.25L66.59 12.25L61.43 12.25L61.43 12.25Q61.34 12.25 61.28 12.19L61.28 12.19L61.28 12.19Q61.22 12.13 61.22 12.02ZM67.64 2.67L67.64 4.07L67.64 4.07Q67.64 4.18 67.70 4.24L67.70 4.24L67.70 4.24Q67.76 4.30 67.87 4.30L67.87 4.30L69.49 4.30L69.49 12.02L69.49 12.02Q69.49 12.25 69.72 12.25L69.72 12.25L71.18 12.25L71.18 12.25Q71.39 12.25 71.39 12.02L71.39 12.02L71.39 4.30L73.02 4.30L73.02 4.30Q73.25 4.30 73.25 4.07L73.25 4.07L73.25 2.67L73.25 2.67Q73.25 2.45 73.02 2.45L73.02 2.45L67.87 2.45L67.87 2.45Q67.76 2.45 67.70 2.51L67.70 2.51L67.70 2.51Q67.64 2.57 67.64 2.67L67.64 2.67ZM74.22 2.67L74.22 12.02L74.22 12.02Q74.22 12.25 74.45 12.25L74.45 12.25L75.91 12.25L75.91 12.25Q76.01 12.25 76.07 12.19L76.07 12.19L76.07 12.19Q76.13 12.13 76.13 12.02L76.13 12.02L76.13 2.67L76.13 2.67Q76.13 2.57 76.07 2.51L76.07 2.51L76.07 2.51Q76.01 2.45 75.91 2.45L75.91 2.45L74.45 2.45L74.45 2.45Q74.22 2.45 74.22 2.67L74.22 2.67ZM77.53 10.23L77.53 10.23L77.53 4.46L77.53 4.46Q77.53 3.47 78.05 2.96L78.05 2.96L78.05 2.96Q78.57 2.45 79.56 2.45L79.56 2.45L81.13 2.45L81.13 2.45Q82.11 2.45 82.63 2.96L82.63 2.96L82.63 2.96Q83.15 3.48 83.15 4.46L83.15 4.46L83.15 5.97L83.15 5.97Q83.15 6.08 83.08 6.14L83.08 6.14L83.08 6.14Q83.02 6.20 82.92 6.20L82.92 6.20L81.60 6.20L81.60 6.20Q81.38 6.20 81.38 5.97L81.38 5.97L81.38 4.83L81.38 4.83Q81.38 4.27 80.82 4.27L80.82 4.27L79.93 4.27L79.93 4.27Q79.37 4.27 79.37 4.83L79.37 4.83L79.37 9.91L79.37 9.91Q79.37 10.47 79.93 10.47L79.93 10.47L80.82 10.47L80.82 10.47Q81.38 10.47 81.38 9.91L81.38 9.91L81.38 8.72L81.38 8.72Q81.38 8.50 81.60 8.50L81.60 8.50L82.92 8.50L82.92 8.50Q83.02 8.50 83.08 8.56L83.08 8.56L83.08 8.56Q83.15 8.62 83.15 8.72L83.15 8.72L83.15 10.23L83.15 10.23Q83.15 11.22 82.63 11.73L82.63 11.73L82.63 11.73Q82.11 12.25 81.13 12.25L81.13 12.25L79.56 12.25L79.56 12.25Q78.57 12.25 78.05 11.74L78.05 11.74L78.05 11.74Q77.53 11.22 77.53 10.23ZM84.54 10.23L84.54 10.23L84.54 9.32L84.54 9.32Q84.54 9.10 84.77 9.10L84.77 9.10L86.18 9.10L86.18 9.10Q86.41 9.10 86.41 9.32L86.41 9.32L86.41 9.91L86.41 9.91Q86.41 10.47 86.97 10.47L86.97 10.47L87.72 10.47L87.72 10.47Q88.28 10.47 88.28 9.91L88.28 9.91L88.28 8.50L84.92 7.40L84.92 7.40Q84.54 7.28 84.54 6.89L84.54 6.89L84.54 4.46L84.54 4.46Q84.54 3.48 85.06 2.96L85.06 2.96L85.06 2.96Q85.58 2.45 86.56 2.45L86.56 2.45L88.13 2.45L88.13 2.45Q89.12 2.45 89.63 2.96L89.63 2.96L89.63 2.96Q90.15 3.47 90.15 4.46L90.15 4.46L90.15 5.39L90.15 5.39Q90.15 5.61 89.92 5.61L89.92 5.61L88.50 5.61L88.50 5.61Q88.40 5.61 88.34 5.55L88.34 5.55L88.34 5.55Q88.28 5.49 88.28 5.39L88.28 5.39L88.28 4.80L88.28 4.80Q88.28 4.25 87.72 4.25L87.72 4.25L86.95 4.25L86.95 4.25Q86.69 4.25 86.54 4.39L86.54 4.39L86.54 4.39Q86.39 4.53 86.39 4.80L86.39 4.80L86.39 6.00L89.78 7.08L89.78 7.08Q90.15 7.21 90.15 7.60L90.15 7.60L90.15 10.23L90.15 10.23Q90.15 11.22 89.63 11.74L89.63 11.74L89.63 11.74Q89.12 12.25 88.13 12.25L88.13 12.25L86.56 12.25L86.56 12.25Q85.58 12.25 85.06 11.73L85.06 11.73L85.06 11.73Q84.54 11.22 84.54 10.23Z"></path></g><!----><!----></svg>