<svg data-v-423bf9ae="" xmlns="http://www.w3.org/2000/svg" viewBox="0 0 527.966253336296 60" class="font"><!----><!----><!----><g data-v-423bf9ae="" id="7fd7818f-83d1-4507-ac55-ee5e01712e3f" fill="#D1E755" transform="matrix(5.623242696436797,0,0,5.623242696436797,-0.7310216707605264,0.05623170544424383)"><path d="M7 10.50L6.22 8.40L3.04 8.40L2.25 10.50L0.13 10.50L3.49 1.36L5.78 1.36L9.14 10.50L7 10.50ZM3.50 6.64L5.77 6.64L5.77 6.64Q5.77 6.64 5.65 6.34L5.65 6.34L5.65 6.34Q5.53 6.05 5.36 5.61L5.36 5.61L5.36 5.61Q5.18 5.17 4.98 4.66L4.98 4.66L4.98 4.66Q4.77 4.16 4.63 3.77L4.63 3.77L4.63 3.77Q4.31 4.56 4.06 5.19L4.06 5.19L4.06 5.19Q3.95 5.46 3.85 5.72L3.85 5.72L3.85 5.72Q3.75 5.98 3.67 6.18L3.67 6.18L3.67 6.18Q3.58 6.38 3.54 6.51L3.54 6.51L3.54 6.51Q3.50 6.64 3.50 6.64L3.50 6.64ZM12.17 8.48L12.17 8.48L12.17 8.48Q12.18 8.72 12.29 8.86L12.29 8.86L12.29 8.86Q12.40 9.00 12.57 9.06L12.57 9.06L12.57 9.06Q12.73 9.13 12.93 9.13L12.93 9.13L12.93 9.13Q13.13 9.14 13.36 9.11L13.36 9.11L13.36 10.56L13.36 10.56Q13.16 10.60 13.01 10.62L13.01 10.62L13.01 10.62Q12.87 10.64 12.75 10.65L12.75 10.65L12.75 10.65Q12.63 10.67 12.54 10.65L12.54 10.65L12.54 10.65Q12.01 10.65 11.59 10.61L11.59 10.61L11.59 10.61Q11.17 10.57 10.88 10.34L10.88 10.34L10.88 10.34Q10.58 10.11 10.43 9.64L10.43 9.64L10.43 9.64Q10.28 9.17 10.28 8.30L10.28 8.30L10.28 1.55L12.17 1.55L12.17 8.48ZM19.89 3.29L21.74 3.29L19.08 10.50L16.97 10.50L14.29 3.29L16.14 3.29L18.03 8.54L19.89 3.29ZM19.89 3.29L21.74 3.29L19.08 10.50L16.97 10.50L14.29 3.29L16.14 3.29L18.03 8.54L19.89 3.29ZM26.36 10.65L26.36 10.65L26.36 10.65Q25.20 10.65 24.44 10.35L24.44 10.35L24.44 10.35Q23.69 10.04 23.23 9.52L23.23 9.52L23.23 9.52Q22.78 9.00 22.60 8.32L22.60 8.32L22.60 8.32Q22.41 7.64 22.41 6.89L22.41 6.89L22.41 6.89Q22.41 6.22 22.60 5.54L22.60 5.54L22.60 5.54Q22.78 4.87 23.18 4.33L23.18 4.33L23.18 4.33Q23.58 3.79 24.22 3.46L24.22 3.46L24.22 3.46Q24.86 3.12 25.79 3.12L25.79 3.12L25.79 3.12Q26.77 3.12 27.42 3.46L27.42 3.46L27.42 3.46Q28.07 3.79 28.46 4.33L28.46 4.33L28.46 4.33Q28.85 4.87 29.02 5.54L29.02 5.54L29.02 5.54Q29.18 6.22 29.18 6.89L29.18 6.89L29.18 7.52L24.22 7.52L24.22 7.52Q24.22 8.27 24.76 8.76L24.76 8.76L24.76 8.76Q25.30 9.25 26.24 9.25L26.24 9.25L26.24 9.25Q26.77 9.25 27.22 9.14L27.22 9.14L27.22 9.14Q27.66 9.03 27.99 8.89L27.99 8.89L27.99 8.89Q28.35 8.74 28.66 8.53L28.66 8.53L28.66 10.09L28.66 10.09Q28.66 10.11 28.48 10.19L28.48 10.19L28.48 10.19Q28.29 10.28 27.99 10.38L27.99 10.38L27.99 10.38Q27.68 10.49 27.26 10.57L27.26 10.57L27.26 10.57Q26.84 10.65 26.36 10.65ZM24.22 6.19L27.40 6.19L27.40 6.19Q27.40 5.95 27.34 5.66L27.34 5.66L27.34 5.66Q27.27 5.38 27.10 5.12L27.10 5.12L27.10 5.12Q26.92 4.87 26.61 4.70L26.61 4.70L26.61 4.70Q26.29 4.54 25.79 4.54L25.79 4.54L25.79 4.54Q25.35 4.54 25.05 4.70L25.05 4.70L25.05 4.70Q24.75 4.87 24.57 5.12L24.57 5.12L24.57 5.12Q24.39 5.38 24.30 5.66L24.30 5.66L24.30 5.66Q24.22 5.95 24.22 6.19L24.22 6.19ZM35.45 3.98L34.82 5.39L34.82 5.39Q34.34 5.03 33.78 4.84L33.78 4.84L33.78 4.84Q33.22 4.66 32.84 4.66L32.84 4.66L32.84 4.66Q32.48 4.66 32.27 4.79L32.27 4.79L32.27 4.79Q32.06 4.91 32.06 5.24L32.06 5.24L32.06 5.24Q32.06 5.52 32.33 5.68L32.33 5.68L32.33 5.68Q32.59 5.85 32.98 6.00L32.98 6.00L32.98 6.00Q33.38 6.15 33.84 6.31L33.84 6.31L33.84 6.31Q34.30 6.47 34.69 6.73L34.69 6.73L34.69 6.73Q35.08 6.99 35.35 7.38L35.35 7.38L35.35 7.38Q35.62 7.78 35.62 8.40L35.62 8.40L35.62 8.40Q35.62 8.99 35.40 9.41L35.40 9.41L35.40 9.41Q35.18 9.84 34.83 10.12L34.83 10.12L34.83 10.12Q34.47 10.39 34.01 10.52L34.01 10.52L34.01 10.52Q33.54 10.65 33.05 10.65L33.05 10.65L33.05 10.65Q32.70 10.65 32.30 10.58L32.30 10.58L32.30 10.58Q31.91 10.50 31.52 10.34L31.52 10.34L31.52 10.34Q31.14 10.18 30.78 9.95L30.78 9.95L30.78 9.95Q30.42 9.72 30.16 9.42L30.16 9.42L30.77 8.05L30.77 8.05Q31.26 8.58 31.82 8.86L31.82 8.86L31.82 8.86Q32.38 9.13 32.84 9.13L32.84 9.13L32.84 9.13Q33.24 9.13 33.60 8.99L33.60 8.99L33.60 8.99Q33.96 8.85 33.98 8.51L33.98 8.51L33.98 8.51Q33.99 8.19 33.73 7.99L33.73 7.99L33.73 7.99Q33.47 7.78 33.08 7.63L33.08 7.63L33.08 7.63Q32.69 7.48 32.23 7.31L32.23 7.31L32.23 7.31Q31.77 7.15 31.37 6.90L31.37 6.90L31.37 6.90Q30.98 6.65 30.72 6.27L30.72 6.27L30.72 6.27Q30.45 5.89 30.46 5.29L30.46 5.29L30.46 5.29Q30.46 4.72 30.67 4.30L30.67 4.30L30.67 4.30Q30.87 3.89 31.21 3.63L31.21 3.63L31.21 3.63Q31.54 3.37 31.98 3.25L31.98 3.25L31.98 3.25Q32.42 3.12 32.90 3.12L32.90 3.12L32.90 3.12Q33.18 3.12 33.52 3.18L33.52 3.18L33.52 3.18Q33.85 3.23 34.20 3.35L34.20 3.35L34.20 3.35Q34.54 3.46 34.87 3.61L34.87 3.61L34.87 3.61Q35.20 3.77 35.45 3.98L35.45 3.98ZM43.18 10.50L42.39 8.40L39.21 8.40L38.43 10.50L36.30 10.50L39.66 1.36L41.96 1.36L45.32 10.50L43.18 10.50ZM39.68 6.64L41.94 6.64L41.94 6.64Q41.94 6.64 41.83 6.34L41.83 6.34L41.83 6.34Q41.71 6.05 41.53 5.61L41.53 5.61L41.53 5.61Q41.36 5.17 41.15 4.66L41.15 4.66L41.15 4.66Q40.95 4.16 40.81 3.77L40.81 3.77L40.81 3.77Q40.49 4.56 40.24 5.19L40.24 5.19L40.24 5.19Q40.12 5.46 40.03 5.72L40.03 5.72L40.03 5.72Q39.93 5.98 39.84 6.18L39.84 6.18L39.84 6.18Q39.76 6.38 39.72 6.51L39.72 6.51L39.72 6.51Q39.68 6.64 39.68 6.64L39.68 6.64ZM49.35 9.20L49.35 9.20L49.35 9.20Q49.76 9.20 50.11 9.13L50.11 9.13L50.11 9.13Q50.27 9.09 50.44 9.04L50.44 9.04L50.46 10.50L50.46 10.50Q50.20 10.54 49.92 10.58L49.92 10.58L49.92 10.58Q49.69 10.61 49.36 10.63L49.36 10.63L49.36 10.63Q49.04 10.65 48.68 10.65L48.68 10.65L48.68 10.65Q48.15 10.60 47.74 10.33L47.74 10.33L47.74 10.33Q47.39 10.09 47.10 9.63L47.10 9.63L47.10 9.63Q46.82 9.16 46.82 8.30L46.82 8.30L46.82 5.36L45.44 5.36L45.44 3.99L46.82 3.99L46.82 1.97L48.68 1.55L48.68 3.99L50.37 3.99L50.37 5.36L48.71 5.36L48.71 8.20L48.71 8.20Q48.71 8.39 48.76 8.56L48.76 8.56L48.76 8.56Q48.80 8.74 48.90 8.88L48.90 8.88L48.90 8.88Q48.99 9.02 49.11 9.11L49.11 9.11L49.11 9.11Q49.22 9.20 49.35 9.20ZM56.07 3.12L56.07 3.12L56.07 3.12Q56.71 3.12 57.18 3.34L57.18 3.34L57.18 3.34Q57.64 3.56 57.94 3.93L57.94 3.93L57.94 3.93Q58.24 4.31 58.38 4.83L58.38 4.83L58.38 4.83Q58.52 5.35 58.52 5.95L58.52 5.95L58.52 10.50L56.64 10.50L56.64 6.58L56.64 6.58Q56.64 5.54 56.36 5.05L56.36 5.05L56.36 5.05Q56.08 4.56 55.40 4.56L55.40 4.56L55.40 4.56Q54.57 4.56 54.17 5.25L54.17 5.25L54.17 5.25Q53.77 5.94 53.77 7.06L53.77 7.06L53.77 10.50L51.90 10.50L51.90 1.55L53.68 1.55L53.68 4.27L53.68 4.27Q53.82 4.12 53.98 3.91L53.98 3.91L53.98 3.91Q54.15 3.71 54.41 3.54L54.41 3.54L54.41 3.54Q54.67 3.36 55.07 3.24L55.07 3.24L55.07 3.24Q55.47 3.12 56.07 3.12ZM62.38 8.48L62.38 8.48L62.38 8.48Q62.40 8.72 62.51 8.86L62.51 8.86L62.51 8.86Q62.62 9.00 62.78 9.06L62.78 9.06L62.78 9.06Q62.94 9.13 63.15 9.13L63.15 9.13L63.15 9.13Q63.35 9.14 63.57 9.11L63.57 9.11L63.57 10.56L63.57 10.56Q63.38 10.60 63.23 10.62L63.23 10.62L63.23 10.62Q63.08 10.64 62.97 10.65L62.97 10.65L62.97 10.65Q62.85 10.67 62.76 10.65L62.76 10.65L62.76 10.65Q62.23 10.65 61.81 10.61L61.81 10.61L61.81 10.61Q61.39 10.57 61.10 10.34L61.10 10.34L61.10 10.34Q60.80 10.11 60.65 9.64L60.65 9.64L60.65 9.64Q60.49 9.17 60.49 8.30L60.49 8.30L60.49 1.55L62.38 1.55L62.38 8.48ZM68.80 10.65L68.80 10.65L68.80 10.65Q67.63 10.65 66.88 10.35L66.88 10.35L66.88 10.35Q66.12 10.04 65.67 9.52L65.67 9.52L65.67 9.52Q65.21 9.00 65.03 8.32L65.03 8.32L65.03 8.32Q64.85 7.64 64.85 6.89L64.85 6.89L64.85 6.89Q64.85 6.22 65.03 5.54L65.03 5.54L65.03 5.54Q65.21 4.87 65.61 4.33L65.61 4.33L65.61 4.33Q66.01 3.79 66.65 3.46L66.65 3.46L66.65 3.46Q67.30 3.12 68.22 3.12L68.22 3.12L68.22 3.12Q69.20 3.12 69.85 3.46L69.85 3.46L69.85 3.46Q70.50 3.79 70.90 4.33L70.90 4.33L70.90 4.33Q71.29 4.87 71.45 5.54L71.45 5.54L71.45 5.54Q71.61 6.22 71.61 6.89L71.61 6.89L71.61 7.52L66.65 7.52L66.65 7.52Q66.65 8.27 67.19 8.76L67.19 8.76L67.19 8.76Q67.73 9.25 68.67 9.25L68.67 9.25L68.67 9.25Q69.20 9.25 69.65 9.14L69.65 9.14L69.65 9.14Q70.10 9.03 70.42 8.89L70.42 8.89L70.42 8.89Q70.78 8.74 71.09 8.53L71.09 8.53L71.09 10.09L71.09 10.09Q71.09 10.11 70.91 10.19L70.91 10.19L70.91 10.19Q70.73 10.28 70.42 10.38L70.42 10.38L70.42 10.38Q70.11 10.49 69.69 10.57L69.69 10.57L69.69 10.57Q69.27 10.65 68.80 10.65ZM66.65 6.19L69.83 6.19L69.83 6.19Q69.83 5.95 69.77 5.66L69.77 5.66L69.77 5.66Q69.71 5.38 69.53 5.12L69.53 5.12L69.53 5.12Q69.36 4.87 69.04 4.70L69.04 4.70L69.04 4.70Q68.73 4.54 68.22 4.54L68.22 4.54L68.22 4.54Q67.79 4.54 67.49 4.70L67.49 4.70L67.49 4.70Q67.19 4.87 67.00 5.12L67.00 5.12L67.00 5.12Q66.82 5.38 66.74 5.66L66.74 5.66L66.74 5.66Q66.65 5.95 66.65 6.19L66.65 6.19ZM76.02 9.20L76.02 9.20L76.02 9.20Q76.43 9.20 76.78 9.13L76.78 9.13L76.78 9.13Q76.94 9.09 77.11 9.04L77.11 9.04L77.13 10.50L77.13 10.50Q76.87 10.54 76.59 10.58L76.59 10.58L76.59 10.58Q76.36 10.61 76.03 10.63L76.03 10.63L76.03 10.63Q75.71 10.65 75.35 10.65L75.35 10.65L75.35 10.65Q74.82 10.60 74.41 10.33L74.41 10.33L74.41 10.33Q74.06 10.09 73.77 9.63L73.77 9.63L73.77 9.63Q73.49 9.16 73.49 8.30L73.49 8.30L73.49 5.36L72.11 5.36L72.11 3.99L73.49 3.99L73.49 1.97L75.35 1.55L75.35 3.99L77.04 3.99L77.04 5.36L75.38 5.36L75.38 8.20L75.38 8.20Q75.38 8.39 75.43 8.56L75.43 8.56L75.43 8.56Q75.47 8.74 75.56 8.88L75.56 8.88L75.56 8.88Q75.66 9.02 75.78 9.11L75.78 9.11L75.78 9.11Q75.89 9.20 76.02 9.20ZM80.58 10.50L78.69 10.50L78.69 3.29L80.58 3.29L80.58 10.50ZM80.68 1.02L80.68 1.02L80.68 1.02Q80.68 1.47 80.37 1.78L80.37 1.78L80.37 1.78Q80.07 2.09 79.63 2.09L79.63 2.09L79.63 2.09Q79.18 2.09 78.88 1.78L78.88 1.78L78.88 1.78Q78.57 1.47 78.57 1.02L78.57 1.02L78.57 1.02Q78.57 0.59 78.88 0.29L78.88 0.29L78.88 0.29Q79.18-0.01 79.63-0.01L79.63-0.01L79.63-0.01Q80.07-0.01 80.37 0.29L80.37 0.29L80.37 0.29Q80.68 0.59 80.68 1.02ZM85.92 3.12L85.92 3.12L85.92 3.12Q86.35 3.12 86.69 3.18L86.69 3.18L86.69 3.18Q87.02 3.23 87.26 3.30L87.26 3.30L87.26 3.30Q87.53 3.39 87.75 3.49L87.75 3.49L87.75 4.82L87.75 4.82Q87.21 4.65 86.57 4.59L86.57 4.59L86.57 4.59Q85.93 4.54 85.39 4.74L85.39 4.74L85.39 4.74Q84.84 4.94 84.48 5.45L84.48 5.45L84.48 5.45Q84.11 5.95 84.11 6.89L84.11 6.89L84.11 6.89Q84.11 7.87 84.48 8.38L84.48 8.38L84.48 8.38Q84.84 8.89 85.39 9.06L85.39 9.06L85.39 9.06Q85.93 9.24 86.57 9.15L86.57 9.15L86.57 9.15Q87.21 9.06 87.75 8.85L87.75 8.85L87.75 10.23L87.75 10.23Q87.54 10.36 87.26 10.44L87.26 10.44L87.26 10.44Q87.02 10.53 86.68 10.59L86.68 10.59L86.68 10.59Q86.34 10.65 85.90 10.65L85.90 10.65L85.90 10.65Q85.36 10.65 84.70 10.51L84.70 10.51L84.70 10.51Q84.04 10.37 83.48 9.97L83.48 9.97L83.48 9.97Q82.91 9.56 82.53 8.83L82.53 8.83L82.53 8.83Q82.15 8.09 82.15 6.89L82.15 6.89L82.15 6.89Q82.15 5.70 82.53 4.96L82.53 4.96L82.53 4.96Q82.91 4.21 83.48 3.81L83.48 3.81L83.48 3.81Q84.04 3.40 84.70 3.26L84.70 3.26L84.70 3.26Q85.36 3.12 85.92 3.12ZM93.86 3.98L93.23 5.39L93.23 5.39Q92.75 5.03 92.19 4.84L92.19 4.84L92.19 4.84Q91.63 4.66 91.25 4.66L91.25 4.66L91.25 4.66Q90.89 4.66 90.68 4.79L90.68 4.79L90.68 4.79Q90.47 4.91 90.47 5.24L90.47 5.24L90.47 5.24Q90.47 5.52 90.73 5.68L90.73 5.68L90.73 5.68Q91.00 5.85 91.39 6.00L91.39 6.00L91.39 6.00Q91.78 6.15 92.25 6.31L92.25 6.31L92.25 6.31Q92.71 6.47 93.10 6.73L93.10 6.73L93.10 6.73Q93.49 6.99 93.76 7.38L93.76 7.38L93.76 7.38Q94.02 7.78 94.02 8.40L94.02 8.40L94.02 8.40Q94.02 8.99 93.81 9.41L93.81 9.41L93.81 9.41Q93.59 9.84 93.23 10.12L93.23 10.12L93.23 10.12Q92.88 10.39 92.41 10.52L92.41 10.52L92.41 10.52Q91.95 10.65 91.46 10.65L91.46 10.65L91.46 10.65Q91.11 10.65 90.71 10.58L90.71 10.58L90.71 10.58Q90.31 10.50 89.93 10.34L89.93 10.34L89.93 10.34Q89.54 10.18 89.19 9.95L89.19 9.95L89.19 9.95Q88.83 9.72 88.56 9.42L88.56 9.42L89.18 8.05L89.18 8.05Q89.67 8.58 90.23 8.86L90.23 8.86L90.23 8.86Q90.79 9.13 91.25 9.13L91.25 9.13L91.25 9.13Q91.64 9.13 92.01 8.99L92.01 8.99L92.01 8.99Q92.37 8.85 92.39 8.51L92.39 8.51L92.39 8.51Q92.40 8.19 92.14 7.99L92.14 7.99L92.14 7.99Q91.88 7.78 91.49 7.63L91.49 7.63L91.49 7.63Q91.10 7.48 90.64 7.31L90.64 7.31L90.64 7.31Q90.17 7.15 89.78 6.90L89.78 6.90L89.78 6.90Q89.39 6.65 89.12 6.27L89.12 6.27L89.12 6.27Q88.86 5.89 88.87 5.29L88.87 5.29L88.87 5.29Q88.87 4.72 89.08 4.30L89.08 4.30L89.08 4.30Q89.28 3.89 89.61 3.63L89.61 3.63L89.61 3.63Q89.95 3.37 90.39 3.25L90.39 3.25L90.39 3.25Q90.83 3.12 91.31 3.12L91.31 3.12L91.31 3.12Q91.59 3.12 91.92 3.18L91.92 3.18L91.92 3.18Q92.26 3.23 92.60 3.35L92.60 3.35L92.60 3.35Q92.95 3.46 93.28 3.61L93.28 3.61L93.28 3.61Q93.60 3.77 93.86 3.98L93.86 3.98Z"></path></g><!----><!----></svg>